<?xml version="1.0" encoding="UTF-8"?>
<svg id="Layer_2" data-name="Layer 2" xmlns="http://www.w3.org/2000/svg" viewBox="0 0 32 32">
  <g id="Layer_1-2" data-name="Layer 1">
    <g>
      <rect width="32" height="32" fill="#b5001f"></rect>
      <path d="M9.25,8.28c0-2.23,1.81-4.03,4.03-4.03s4.03,1.81,4.03,4.03-1.81,4.03-4.03,4.03-4.03-1.81-4.03-4.03ZM18.02,13.01h-9.88c-1.39,0-2.64,1.11-2.64,2.64v8.07c0,.7.7,1.39,1.53,1.39s1.53-.7,1.53-1.53v-6.4h.7v9.88h5.29v-.14c-1.67-1.53-2.78-3.62-2.78-6.12,0-3.9,2.64-7.1,6.26-7.79ZM26.5,20.94c0,3.76-3.06,6.82-6.82,6.82s-6.82-3.06-6.82-6.82,3.06-6.82,6.82-6.82,6.82,3.06,6.82,6.82ZM22.75,25.39l-7.37-7.37c-.7.83-.97,1.81-.97,2.92,0,2.92,2.37,5.29,5.43,5.43,1.11,0,2.09-.42,2.92-.97ZM24.97,20.94c0-2.92-2.37-5.29-5.29-5.29-1.25,0-2.23.28-3.2.97l7.51,7.37s.97-.73.97-3.06Z" fill="#fff"></path>
    </g>
  </g>
</svg>